<?xml version="1.0" standalone="no"?>
<!DOCTYPE svg PUBLIC "-//W3C//DTD SVG 1.1//EN" "http://www.w3.org/Graphics/SVG/1.1/DTD/svg11.dtd" >
<svg xmlns="http://www.w3.org/2000/svg" xmlns:xlink="http://www.w3.org/1999/xlink" version="1.1">
<metadata>
Created by FontForge 20181214 at Thu Jul 19 14:11:04 2018
 By convertio
</metadata>
<defs>
<font id="Mediteran" horiz-adv-x="612" >
  <font-face 
    font-family="Mediteran"
    font-weight="400"
    font-stretch="normal"
    units-per-em="1000"
    panose-1="0 0 0 0 0 0 0 0 0 0"
    ascent="750"
    descent="-250"
    x-height="700"
    cap-height="702"
    bbox="-181 -411.035 1218 1054"
    underline-thickness="50"
    underline-position="-100"
    unicode-range="U+000D-007E"
  />
<missing-glyph horiz-adv-x="500" 
 />
    <glyph glyph-name=".notdef" horiz-adv-x="500" 
 />
    <glyph glyph-name="NULL" horiz-adv-x="0" 
 />
    <glyph glyph-name="NULL" horiz-adv-x="0" 
 />
    <glyph glyph-name="CR" unicode="&#xd;" horiz-adv-x="500" 
 />
    <glyph glyph-name="space" unicode=" " horiz-adv-x="500" 
 />
    <glyph glyph-name="E" unicode="E" horiz-adv-x="593" 
d="M396 79c160 -15 223 44 223 44c-25 -30 -134 -122 -295 -122c-166 0 -324 120 -324 324c0 150 107 243 161 279c3 2 181 131 267 89c78 -36 -9 -169 -221 -286c41 11 85 16 116 16h207s89 45 89 45c-23 -63 -145 -104 -263 -104h-226c1 -3 1 -7 1 -10
c17 -135 103 -261 265 -275zM197 611c-46 -46 -70 -146 -68 -227c34 15 125 59 157 101c39 52 45 85 30 118s-76 44 -119 8v0z" />
    <glyph glyph-name="F" unicode="F" horiz-adv-x="505" 
d="M299 88c164 0 196 57 196 57c-32 -57 -93 -113 -263 -113h-96v-115c-42 0 -115 -148 -158 -220c-42 -71 -89 -57 -89 -57c106 47 112 195 112 392h-106c23 20 64 35 106 44v519c0 90 -49 104 -71 105l206 2v-78c44 26 143 78 224 78h145s-63 -81 -47 -181
c0 0 -12 -3 -17 32s-2 71 -88 92c-79 21 -159 15 -217 -39v-518h163zM-81 700c0 0 4 1 11 0h-11z" />
    <glyph glyph-name="G" unicode="G" horiz-adv-x="750" 
d="M575 100c0 0 59 28 130 105c0 0 -18 -310 -400 -540c0 0 247 167 254 411c-52 -35 -134 -76 -239 -76c-166 0 -323 120 -323 324c0 197 190 296 190 296c46 27 149 80 233 80h150s-52 -67 -52 -154c0 -11 1 -24 3 -35c-36 -1 23 97 -108 130c-30 7 -58 11 -86 11
c-42 0 -81 -9 -116 -31c-56 -30 -85 -141 -85 -226c0 -171 105 -319 313 -319c64 0 110 12 136 24z" />
    <glyph glyph-name="H" unicode="H" horiz-adv-x="760" 
d="M388 669c302 0 333 -237 302 -418c-44 -251 -294 -361 -294 -361c86 40 158 191 175 298c23 145 13 408 -251 408c-70 0 -120 -14 -154 -30v-466c0 -58 15 -100 96 -100h-231v618v310s-33 64 -60 64h195v-410c50 42 126 87 222 87z" />
    <glyph glyph-name="I" unicode="I" horiz-adv-x="272" 
d="M-25 702h204v-597c0 -61 16 -105 101 -105h-242v648c0 49 -35 54 -63 54z" />
    <glyph glyph-name="J" unicode="J" horiz-adv-x="204" 
d="M-49 697l217 2v-785c-42 0 -115 -148 -158 -220c-43 -71 -89 -57 -89 -57c106 47 112 195 112 392v563s-82 105 -82 105z" />
    <glyph glyph-name="K" unicode="K" horiz-adv-x="723" 
d="M486 1l-320 320v-220c0 -58 15 -100 96 -100h-232v621v311c0 49 -33 63 -60 63h196v-473c32 57 103 150 231 150h124s-62 -81 -46 -181c0 0 -12 -3 -17 32c-5 34 -3 77 -92 85c-85 7 -149 -45 -189 -106l354 -354c48 -48 142 -148 258 -148h-303z" />
    <glyph glyph-name="L" unicode="L" horiz-adv-x="526" 
d="M-29 997h196v-659c0 -77 14 -174 52 -212c51 -52 165 -93 277 -16c0 0 -124 -130 -315 -106c-109 14 -149 101 -149 196v421v312c0 49 -34 64 -61 64z" />
    <glyph glyph-name="M" unicode="M" horiz-adv-x="1264" 
d="M890 703c258 0 328 -163 328 -326c0 -38 -4 -76 -10 -113c-47 -263 -308 -379 -308 -379c89 43 166 201 183 313c5 31 9 68 9 107c0 148 -52 321 -272 321c-72 0 -123 -20 -159 -43c10 -27 14 -57 14 -88v-427c0 -51 34 -67 62 -67h-205v350c0 169 -48 283 -208 283
c-121 0 -181 -127 -181 -298c0 -309 197 -335 201 -335h-239c-27 0 -104 61 -104 231c0 256 218 387 232 394c48 33 129 77 235 77c108 0 165 -43 191 -113c52 53 132 113 231 113z" />
    <glyph glyph-name="N" unicode="N" horiz-adv-x="760" 
d="M696 47c31 -21 67 -39 107 -47h-107h-75h-25v2c-92 13 -141 93 -164 126c-115 158 -293 398 -309 420v-379c0 -110 -100 -169 -100 -169v660c-26 23 -54 39 -79 39h179c70 -8 119 -75 141 -104c174 -234 335 -455 332 -451v386c0 111 100 169 100 169v-652z" />
    <glyph glyph-name="O" unicode="O" horiz-adv-x="813" 
d="M452 700c162 0 322 -115 322 -314c0 -182 -137 -272 -207 -306c-50 -36 -136 -78 -244 -78c-162 0 -322 115 -322 314c0 182 137 272 207 306c50 37 135 78 244 78zM566 92c53 52 80 150 80 227c0 163 -120 310 -331 310c-47 0 -82 -8 -106 -18
c-53 -52 -79 -150 -79 -226c0 -167 119 -311 333 -311c45 0 79 8 103 18z" />
    <glyph glyph-name="P" unicode="P" horiz-adv-x="752" 
d="M389 699c306 0 338 -240 306 -423c-45 -254 -297 -366 -297 -366c86 41 160 194 177 302c24 147 13 413 -254 413c-71 0 -122 -14 -156 -30v-691c-43 0 -117 -149 -160 -222c-43 -72 -90 -58 -90 -58c107 48 113 197 113 397v570c0 91 -50 105 -72 106l209 2v-88
c51 42 128 88 224 88zM-55 697c0 0 4 1 11 0h-11z" />
    <glyph glyph-name="B" unicode="B" 
d="M341 439c43 11 241 43 241 -191c0 -241 -304 -248 -436 -248s-145 83 -145 152v463c0 80 -85 86 -85 86h227v-39c71 42 145 39 190 39c50 0 157 16 157 -106c0 -112 -129 -151 -149 -156zM337 44c73 38 103 91 103 196c0 106 -41 130 -86 152s-117 3 -117 3
c71 35 100 82 125 135c26 52 10 154 -72 154c-54 0 -114 -25 -147 -42v-496c0 -130 122 -141 194 -102z" />
    <glyph glyph-name="C" unicode="C" 
d="M389 77c18 -2 34 -2 49 -2c123 0 173 46 173 46c-25 -29 -133 -121 -293 -121c-165 0 -323 119 -323 323c0 198 190 297 190 297c46 27 149 80 233 80h151s-53 -67 -53 -155c0 -11 1 -23 3 -34c-36 -1 23 96 -108 129c-29 8 -58 12 -86 12c-42 0 -81 -9 -116 -31
c-56 -30 -85 -144 -85 -230c0 -148 89 -298 265 -314z" />
    <glyph glyph-name="A" unicode="A" horiz-adv-x="833" 
d="M660 201c28 -39 116 -175 250 -201h-182c-109 0 -164 92 -190 127c-36 50 -78 107 -119 164c-137 -207 -284 -309 -369 -285c-54 16 -85 141 17 265c78 94 180 139 249 160c-38 52 -68 93 -81 110c-34 47 -122 159 -185 159h166c77 0 131 -74 154 -105
c84 -113 262 -356 290 -394zM304 170c54 60 77 124 86 161c-24 33 -48 65 -69 93c-27 -13 -60 -32 -91 -62c-89 -82 -109 -193 -102 -232c7 -44 82 -63 176 40z" />
    <glyph glyph-name="D" unicode="D" horiz-adv-x="755" 
d="M582 659c127 -70 191 -227 130 -387c-35 -90 -97 -144 -139 -172c-41 -37 -135 -99 -264 -99c-157 0 -313 114 -309 309c5 228 236 302 236 302c-85 -40 -122 -185 -110 -275c16 -128 98 -239 251 -262c91 -14 148 2 180 18c71 61 105 204 90 287
c-19 110 -97 158 -239 226c-133 64 -381 134 -394 245c-14 113 71 203 71 203c-85 -163 377 -328 497 -395z" />
    <glyph glyph-name="Q" unicode="Q" horiz-adv-x="834" 
d="M848 -27c44 -27 157 -94 241 -48c0 0 -200 -144 -337 -59c-106 66 -220 137 -266 165c-44 -17 -100 -32 -161 -32c-164 0 -328 119 -324 324c4 178 139 266 208 298c51 38 137 79 245 79c166 0 328 -119 324 -323c-4 -136 -83 -219 -151 -266c20 -13 179 -112 221 -138z
M396 76c81 -12 138 -2 172 13c63 61 87 181 78 260c-16 134 -103 250 -263 274c-82 13 -138 1 -173 -12c-61 -61 -87 -182 -78 -261c18 -133 104 -250 264 -274z" />
    <glyph glyph-name="R" unicode="R" horiz-adv-x="784" 
d="M-52 700c0 0 4 1 12 0h-12zM787 1h-316l-275 272c-13 -5 -21 -7 -21 -7v-386c-44 0 -120 -154 -165 -229c-44 -75 -93 -61 -93 -61c110 50 116 205 116 411v589c0 94 -51 109 -73 110l215 2v-50c54 33 219 80 292 24c94 -72 33 -229 -120 -325c-6 -3 -11 -6 -17 -10
c24 -24 145 -141 188 -186c50 -50 147 -154 269 -154zM175 635v-355c117 57 216 172 196 308c-19 137 -159 67 -196 47z" />
    <glyph glyph-name="S" unicode="S" horiz-adv-x="615" 
d="M508 385c42 -23 60 -62 60 -106c1 -70 -44 -149 -108 -197c-57 -42 -146 -85 -287 -85c-113 0 -184 41 -184 41s98 135 98 211c0 0 -1 2 5 2c4 0 10 -4 10 -28c0 -14 -7 -40 -7 -68c0 -49 27 -108 172 -108c93 0 236 35 236 132c0 5 -1 11 -2 16c-7 34 -9 67 -193 89
s-287 53 -287 158c0 68 38 114 74 142c32 32 132 117 270 117h153s-53 -67 -53 -157c0 -10 1 -23 3 -34c-36 -2 25 98 -110 132c-29 7 -57 11 -85 11c-43 0 -84 -10 -119 -33c0 0 -52 -36 -52 -84c0 -136 299 -96 406 -151z" />
    <glyph glyph-name="T" unicode="T" horiz-adv-x="568" 
d="M596 761c-31 -56 -89 -111 -243 -118v-540c0 -61 15 -104 100 -104h-243v643h-243c43 39 148 59 211 59c10 0 20 -1 175 1v-1c205 0 243 53 243 60z" />
    <glyph glyph-name="U" unicode="U" horiz-adv-x="720" 
d="M46 700h212s39 -80 -21 -187c-61 -106 -124 -210 -79 -323c41 -102 270 -148 381 -47v503c0 44 -28 52 -54 54h195v-596c0 -60 15 -102 94 -104h-235v139c-48 -54 -152 -139 -336 -139c-231 0 -245 232 -138 384c90 129 125 301 -19 316z" />
    <glyph glyph-name="V" unicode="V" horiz-adv-x="698" 
d="M662 697c47 0 111 -118 102 -279c-19 -224 -263 -364 -263 -364l-73 -54s-363 496 -396 541c-35 47 -123 160 -185 160h166c77 0 130 -75 154 -106c76 -100 316 -431 365 -498c59 57 91 151 91 274c0 301 -197 326 -200 326h239z" />
    <glyph glyph-name="W" unicode="W" horiz-adv-x="1203" 
d="M1099 698c29 0 118 -73 102 -280c-18 -225 -264 -366 -264 -366h-2c-57 -33 -144 -66 -251 -53c-86 12 -131 64 -148 132c-50 -54 -155 -134 -332 -134c-232 0 -246 233 -139 386c90 129 126 302 -19 317h213s40 -82 -21 -188c-61 -107 -125 -212 -80 -324
c41 -101 262 -147 377 -53c-6 23 -8 46 -8 70v426s-35 67 -63 67h205v-350c0 -80 15 -181 54 -221c43 -45 132 -82 228 -49c78 63 118 179 108 339c-17 258 -199 281 -199 281h239z" />
    <glyph glyph-name="X" unicode="X" horiz-adv-x="815" 
d="M593 201c29 -39 116 -176 250 -202h-181c-109 0 -165 92 -191 127c-33 45 -70 98 -108 150c-98 -148 -188 -276 -364 -276v192c23 0 8 -71 81 -71c60 0 117 25 247 204c-74 98 -139 189 -160 218c-34 46 -123 158 -185 158h166c77 0 131 -73 155 -105
c28 -39 69 -95 111 -151c182 244 269 256 388 256v-165s-2 -1 -5 -1s-7 2 -7 9c-5 33 -27 59 -70 59c-57 0 -162 -63 -272 -205c68 -90 130 -176 145 -197z" />
    <glyph glyph-name="Y" unicode="Y" horiz-adv-x="616" 
d="M645 703c0 0 -51 -66 -51 -153c0 -10 1 -22 3 -33c-33 -2 17 114 -117 114c-90 0 -216 -92 -216 -361v-200v-99c-44 0 -119 -151 -162 -225c-31 -53 -66 -60 -82 -60c-6 0 -10 1 -10 1c109 49 115 201 115 403v180c0 186 -11 248 -53 306c-27 36 -83 59 -139 59
c-43 0 -85 -13 -114 -43c0 0 51 108 217 108c103 0 205 -76 225 -223c20 94 81 226 258 226h126zM228 741c-25 54 -62 90 -62 90l98 99l98 -99s-45 -55 -61 -92c-26 -60 -37 -117 -37 -117s-10 63 -36 119z" />
    <glyph glyph-name="Z" unicode="Z" horiz-adv-x="573" 
d="M499 201c0 -144 96 -202 96 -202h-631l480 648h-217c-139 0 -148 -94 -148 -124c0 -29 -21 -23 -21 -23c0 143 -94 201 -94 201h642l-479 -648h204c139 0 148 94 148 124s20 24 20 24z" />
    <glyph glyph-name="a" unicode="a" horiz-adv-x="833" 
d="M660 201c28 -39 116 -175 250 -201h-182c-109 0 -164 92 -190 127c-36 50 -78 107 -119 164c-137 -207 -284 -309 -369 -285c-54 16 -85 141 17 265c78 94 180 139 249 160c-38 52 -68 93 -81 110c-34 47 -122 159 -185 159h166c77 0 131 -74 154 -105
c84 -113 262 -356 290 -394zM304 170c54 60 77 124 86 161c-24 33 -48 65 -69 93c-27 -13 -60 -32 -91 -62c-89 -82 -109 -193 -102 -232c7 -44 82 -63 176 40z" />
    <glyph glyph-name="b" unicode="b" 
d="M341 439c43 11 241 43 241 -191c0 -241 -304 -248 -436 -248s-145 83 -145 152v463c0 80 -85 86 -85 86h227v-39c71 42 145 39 190 39c50 0 157 16 157 -106c0 -112 -129 -151 -149 -156zM337 44c73 38 103 91 103 196c0 106 -41 130 -86 152s-117 3 -117 3
c71 35 100 82 125 135c26 52 10 154 -72 154c-54 0 -114 -25 -147 -42v-496c0 -130 122 -141 194 -102z" />
    <glyph glyph-name="c" unicode="c" 
d="M389 77c18 -2 34 -2 49 -2c123 0 173 46 173 46c-25 -29 -133 -121 -293 -121c-165 0 -323 119 -323 323c0 198 190 297 190 297c46 27 149 80 233 80h151s-53 -67 -53 -155c0 -11 1 -23 3 -34c-36 -1 23 96 -108 129c-29 8 -58 12 -86 12c-42 0 -81 -9 -116 -31
c-56 -30 -85 -144 -85 -230c0 -148 89 -298 265 -314z" />
    <glyph glyph-name="d" unicode="d" horiz-adv-x="771" 
d="M582 659c127 -70 191 -227 130 -387c-35 -90 -97 -144 -139 -172c-41 -37 -135 -99 -264 -99c-157 0 -313 114 -309 309c5 228 236 302 236 302c-85 -40 -122 -185 -110 -275c16 -128 98 -239 251 -262c91 -14 148 2 180 18c71 61 105 204 90 287
c-19 110 -97 158 -239 226c-133 64 -381 134 -394 245c-14 113 71 203 71 203c-85 -163 377 -328 497 -395z" />
    <glyph glyph-name="e" unicode="e" horiz-adv-x="635" 
d="M396 79c160 -15 223 44 223 44c-25 -30 -134 -122 -295 -122c-166 0 -324 120 -324 324c0 150 107 243 161 279c3 2 181 131 267 89c78 -36 -9 -169 -221 -286c41 11 85 16 116 16h207s89 45 89 45c-23 -63 -145 -104 -263 -104h-226c1 -3 1 -7 1 -10
c17 -135 103 -261 265 -275zM197 611c-46 -46 -70 -146 -68 -227c34 15 125 59 157 101c39 52 45 85 30 118s-76 44 -119 8v0z" />
    <glyph glyph-name="f" unicode="f" horiz-adv-x="546" 
d="M340 88c164 0 196 57 196 57c-32 -57 -93 -113 -263 -113h-96v-115c-42 0 -115 -148 -158 -220c-42 -71 -89 -57 -89 -57c106 47 112 195 112 392h-106c23 20 64 35 106 44v519c0 90 -49 104 -71 105l206 2v-78c44 26 143 78 224 78h145s-63 -81 -47 -181
c0 0 -12 -3 -17 32s-2 71 -88 92c-79 21 -159 15 -217 -39v-518h163zM-40 700c0 0 4 1 11 0h-11z" />
    <glyph glyph-name="g" unicode="g" horiz-adv-x="750" 
d="M575 100c0 0 59 28 130 105c0 0 -18 -310 -400 -540c0 0 247 167 254 411c-52 -35 -134 -76 -239 -76c-166 0 -323 120 -323 324c0 197 190 296 190 296c46 27 149 80 233 80h150s-52 -67 -52 -154c0 -11 1 -24 3 -35c-36 -1 23 97 -108 130c-30 7 -58 11 -86 11
c-42 0 -81 -9 -116 -31c-56 -30 -85 -141 -85 -226c0 -171 105 -319 313 -319c64 0 110 12 136 24z" />
    <glyph glyph-name="h" unicode="h" horiz-adv-x="760" 
d="M388 669c302 0 333 -237 302 -418c-44 -251 -294 -361 -294 -361c86 40 158 191 175 298c23 145 13 408 -251 408c-70 0 -120 -14 -154 -30v-466c0 -58 15 -100 96 -100h-231v618v310s-33 64 -60 64h195v-410c50 42 126 87 222 87z" />
    <glyph glyph-name="i" unicode="i" horiz-adv-x="272" 
d="M-25 702h204v-597c0 -61 16 -105 101 -105h-242v648c0 49 -35 54 -63 54z" />
    <glyph glyph-name="j" unicode="j" horiz-adv-x="204" 
d="M-49 697l217 2v-785c-42 0 -115 -148 -158 -220c-43 -71 -89 -57 -89 -57c106 47 112 195 112 392v563s-82 105 -82 105z" />
    <glyph glyph-name="k" unicode="k" horiz-adv-x="723" 
d="M486 1l-320 320v-220c0 -58 15 -100 96 -100h-232v621v311c0 49 -33 63 -60 63h196v-473c32 57 103 150 231 150h124s-62 -81 -46 -181c0 0 -12 -3 -17 32c-5 34 -3 77 -92 85c-85 7 -149 -45 -189 -106l354 -354c48 -48 142 -148 258 -148h-303z" />
    <glyph glyph-name="l" unicode="l" horiz-adv-x="500" 
d="M-29 997h196v-659c0 -77 14 -174 52 -212c51 -52 165 -93 277 -16c0 0 -124 -130 -315 -106c-109 14 -149 101 -149 196v421v312c0 49 -34 64 -61 64z" />
    <glyph glyph-name="m" unicode="m" horiz-adv-x="1264" 
d="M890 703c258 0 328 -163 328 -326c0 -38 -4 -76 -10 -113c-47 -263 -308 -379 -308 -379c89 43 166 201 183 313c5 31 9 68 9 107c0 148 -52 321 -272 321c-72 0 -123 -20 -159 -43c10 -27 14 -57 14 -88v-427c0 -51 34 -67 62 -67h-205v350c0 169 -48 283 -208 283
c-121 0 -181 -127 -181 -298c0 -309 197 -335 201 -335h-239c-27 0 -104 61 -104 231c0 256 218 387 232 394c48 33 129 77 235 77c108 0 165 -43 191 -113c52 53 132 113 231 113z" />
    <glyph glyph-name="n" unicode="n" horiz-adv-x="760" 
d="M696 47c31 -21 67 -39 107 -47h-107h-75h-25v2c-92 13 -141 93 -164 126c-115 158 -293 398 -309 420v-379c0 -110 -100 -169 -100 -169v660c-26 23 -54 39 -79 39h179c70 -8 119 -75 141 -104c174 -234 335 -455 332 -451v386c0 111 100 169 100 169v-652z" />
    <glyph glyph-name="o" unicode="o" horiz-adv-x="813" 
d="M452 700c162 0 322 -115 322 -314c0 -182 -137 -272 -207 -306c-50 -36 -136 -78 -244 -78c-162 0 -322 115 -322 314c0 182 137 272 207 306c50 37 135 78 244 78zM566 92c53 52 80 150 80 227c0 163 -120 310 -331 310c-47 0 -82 -8 -106 -18
c-53 -52 -79 -150 -79 -226c0 -167 119 -311 333 -311c45 0 79 8 103 18z" />
    <glyph glyph-name="p" unicode="p" horiz-adv-x="752" 
d="M389 699c306 0 338 -240 306 -423c-45 -254 -297 -366 -297 -366c86 41 160 194 177 302c24 147 13 413 -254 413c-71 0 -122 -14 -156 -30v-691c-43 0 -117 -149 -160 -222c-43 -72 -90 -58 -90 -58c107 48 113 197 113 397v570c0 91 -50 105 -72 106l209 2v-88
c51 42 128 88 224 88zM-55 697c0 0 4 1 11 0h-11z" />
    <glyph glyph-name="q" unicode="q" horiz-adv-x="834" 
d="M848 -27c44 -27 157 -94 241 -48c0 0 -200 -144 -337 -59c-106 66 -220 137 -266 165c-44 -17 -100 -32 -161 -32c-164 0 -328 119 -324 324c4 178 139 266 208 298c51 38 137 79 245 79c166 0 328 -119 324 -323c-4 -136 -83 -219 -151 -266c20 -13 179 -112 221 -138z
M396 76c81 -12 138 -2 172 13c63 61 87 181 78 260c-16 134 -103 250 -263 274c-82 13 -138 1 -173 -12c-61 -61 -87 -182 -78 -261c18 -133 104 -250 264 -274z" />
    <glyph glyph-name="r" unicode="r" horiz-adv-x="709" 
d="M-52 700c0 0 4 1 12 0h-12zM787 1h-316l-275 272c-13 -5 -21 -7 -21 -7v-386c-44 0 -120 -154 -165 -229c-44 -75 -93 -61 -93 -61c110 50 116 205 116 411v589c0 94 -51 109 -73 110l215 2v-50c54 33 219 80 292 24c94 -72 33 -229 -120 -325c-6 -3 -11 -6 -17 -10
c24 -24 145 -141 188 -186c50 -50 147 -154 269 -154zM175 635v-355c117 57 216 172 196 308c-19 137 -159 67 -196 47z" />
    <glyph glyph-name="s" unicode="s" horiz-adv-x="615" 
d="M508 385c42 -23 60 -62 60 -106c1 -70 -44 -149 -108 -197c-57 -42 -146 -85 -287 -85c-113 0 -184 41 -184 41s98 135 98 211c0 0 -1 2 5 2c4 0 10 -4 10 -28c0 -14 -7 -40 -7 -68c0 -49 27 -108 172 -108c93 0 236 35 236 132c0 5 -1 11 -2 16c-7 34 -9 67 -193 89
s-287 53 -287 158c0 68 38 114 74 142c32 32 132 117 270 117h153s-53 -67 -53 -157c0 -10 1 -23 3 -34c-36 -2 25 98 -110 132c-29 7 -57 11 -85 11c-43 0 -84 -10 -119 -33c0 0 -52 -36 -52 -84c0 -136 299 -96 406 -151z" />
    <glyph glyph-name="t" unicode="t" horiz-adv-x="537" 
d="M565 761c-31 -56 -89 -111 -243 -118v-540c0 -61 15 -104 100 -104h-243v643h-243c43 39 148 59 211 59c10 0 20 -1 175 1v-1c205 0 243 53 243 60z" />
    <glyph glyph-name="u" unicode="u" horiz-adv-x="720" 
d="M46 700h212s39 -80 -21 -187c-61 -106 -124 -210 -79 -323c41 -102 270 -148 381 -47v503c0 44 -28 52 -54 54h195v-596c0 -60 15 -102 94 -104h-235v139c-48 -54 -152 -139 -336 -139c-231 0 -245 232 -138 384c90 129 125 301 -19 316z" />
    <glyph glyph-name="v" unicode="v" horiz-adv-x="782" 
d="M672 697c47 0 111 -118 102 -279c-19 -224 -263 -364 -263 -364l-73 -54s-363 496 -396 541c-35 47 -123 160 -185 160h166c77 0 130 -75 154 -106c76 -100 316 -431 365 -498c59 57 91 151 91 274c0 301 -197 326 -200 326h239z" />
    <glyph glyph-name="w" unicode="w" horiz-adv-x="1203" 
d="M1099 698c29 0 118 -73 102 -280c-18 -225 -264 -366 -264 -366h-2c-57 -33 -144 -66 -251 -53c-86 12 -131 64 -148 132c-50 -54 -155 -134 -332 -134c-232 0 -246 233 -139 386c90 129 126 302 -19 317h213s40 -82 -21 -188c-61 -107 -125 -212 -80 -324
c41 -101 262 -147 377 -53c-6 23 -8 46 -8 70v426s-35 67 -63 67h205v-350c0 -80 15 -181 54 -221c43 -45 132 -82 228 -49c78 63 118 179 108 339c-17 258 -199 281 -199 281h239z" />
    <glyph glyph-name="x" unicode="x" horiz-adv-x="815" 
d="M593 201c29 -39 116 -176 250 -202h-181c-109 0 -165 92 -191 127c-33 45 -70 98 -108 150c-98 -148 -188 -276 -364 -276v192c23 0 8 -71 81 -71c60 0 117 25 247 204c-74 98 -139 189 -160 218c-34 46 -123 158 -185 158h166c77 0 131 -73 155 -105
c28 -39 69 -95 111 -151c182 244 269 256 388 256v-165s-2 -1 -5 -1s-7 2 -7 9c-5 33 -27 59 -70 59c-57 0 -162 -63 -272 -205c68 -90 130 -176 145 -197z" />
    <glyph glyph-name="y" unicode="y" horiz-adv-x="616" 
d="M645 703c0 0 -51 -66 -51 -153c0 -10 1 -22 3 -33c-33 -2 17 114 -117 114c-90 0 -216 -92 -216 -361v-200v-99c-44 0 -119 -151 -162 -225c-31 -53 -66 -60 -82 -60c-6 0 -10 1 -10 1c109 49 115 201 115 403v180c0 186 -11 248 -53 306c-27 36 -83 59 -139 59
c-43 0 -85 -13 -114 -43c0 0 51 108 217 108c103 0 205 -76 225 -223c20 94 81 226 258 226h126zM228 741c-25 54 -62 90 -62 90l98 99l98 -99s-45 -55 -61 -92c-26 -60 -37 -117 -37 -117s-10 63 -36 119z" />
    <glyph glyph-name="z" unicode="z" horiz-adv-x="573" 
d="M499 201c0 -144 96 -202 96 -202h-631l480 648h-217c-139 0 -148 -94 -148 -124c0 -29 -21 -23 -21 -23c0 143 -94 201 -94 201h642l-479 -648h204c139 0 148 94 148 124s20 24 20 24z" />
    <glyph glyph-name="zero" unicode="0" horiz-adv-x="591" 
d="M316 700c109 0 229 -84 229 -316c0 -193 -116 -279 -161 -306c-35 -33 -88 -70 -155 -70c-109 0 -229 85 -229 319c0 191 117 277 161 303c35 34 88 70 155 70zM394 99c34 53 51 148 51 223c0 162 -80 307 -221 307c-32 0 -56 -9 -73 -19c-33 -52 -51 -145 -51 -219
c0 -168 78 -312 222 -312c32 0 56 9 72 20z" />
    <glyph glyph-name="one" unicode="1" horiz-adv-x="272" 
d="M225 142c0 -164 5 -324 93 -364c0 0 -3 -1 -9 -1c-13 0 -40 6 -65 49c-36 60 -96 182 -132 182v473c0 4 3 98 -112 98l225 121v-79v-479z" />
    <glyph glyph-name="two" unicode="2" horiz-adv-x="440" 
d="M361 161c0 -113 76 -160 76 -160h-435v5v-5c0 0 -2 11 -2 30c0 47 12 142 92 225c90 92 237 198 237 300c0 78 -77 105 -132 105c-22 0 -46 -4 -67 -9c-108 -28 -61 -104 -88 -104c1 8 2 17 2 26c0 72 -42 126 -42 126h122c110 0 177 -55 207 -84c26 -25 61 -69 61 -150
c0 -169 -304 -264 -365 -405h201c161 0 93 107 133 100z" />
    <glyph glyph-name="three" unicode="3" horiz-adv-x="487" 
d="M265 399c77 0 173 -59 173 -169c0 -122 -144 -187 -152 -187c-37 -22 -88 -43 -155 -43h-121s41 55 41 125c0 9 -1 18 -2 28c37 1 -39 -114 157 -114c26 0 53 4 76 18c16 9 46 44 46 112c0 138 -98 190 -175 190c-9 0 -18 -2 -25 -2s-8 3 -8 6c0 2 1 4 1 4
c3 -1 6 -1 10 -1c51 0 164 49 164 189c0 95 -76 128 -124 128c-148 0 -86 -137 -122 -137c1 10 2 19 2 28c0 70 -41 125 -41 125s14 -1 49 -1c22 0 50 1 87 1c52 0 90 -5 120 -11c35 -7 124 -31 124 -126c0 -118 -113 -166 -125 -163z" />
    <glyph glyph-name="four" unicode="4" horiz-adv-x="609" 
d="M606 194h-166c0 -181 -5 -372 93 -416c0 0 -3 -1 -8 -1c-13 0 -41 6 -66 49c-35 60 -96 182 -131 182v186h-329l28 34c27 33 151 193 151 345c0 7 0 15 -1 23c-1 0 33 -63 33 -121c0 -53 -23 -138 -86 -222h204v447h172c-19 -1 -60 -15 -60 -89v-354c106 20 58 96 87 96
h4c0 -113 75 -159 75 -159z" />
    <glyph glyph-name="five" unicode="5" horiz-adv-x="462" 
d="M248 643h-111v-257c39 12 79 17 111 17c85 0 183 -59 183 -173c0 -123 -145 -189 -154 -189c-36 -23 -88 -44 -155 -44h-122s42 55 42 126c0 9 -1 18 -2 27c36 1 -40 -113 157 -113c26 0 54 4 76 17c17 9 47 45 47 113c0 138 -99 191 -177 191c-3 0 -35 3 -80 -23
c-26 -15 -41 -38 -41 -38v346v30v1v26h437s-76 -45 -76 -153c0 0 -2 -1 -4 -1c-31 0 27 97 -131 97z" />
    <glyph glyph-name="six" unicode="6" horiz-adv-x="541" 
d="M339 467c67 0 165 -54 159 -198c-5 -107 -80 -165 -107 -183c-34 -36 -90 -78 -162 -78c-109 0 -229 85 -229 319c0 270 240 373 240 373c-67 -30 -140 -210 -138 -345c1 -133 68 -247 174 -270c66 -15 106 3 127 21c21 36 30 93 26 136c-6 82 -70 137 -136 150
c-102 19 -148 -56 -158 -73c13 27 60 148 204 148z" />
    <glyph glyph-name="seven" unicode="7" horiz-adv-x="609" 
d="M515 370c136 0 163 48 163 48c-25 -45 -71 -88 -191 -94c0 -207 -23 -493 93 -546c0 0 -3 -1 -9 -1c-13 0 -40 6 -65 49c-36 60 -97 182 -132 182v316h-196c46 40 151 46 196 46v274h-169c-155 0 -98 -96 -129 -96c-3 0 -4 1 -4 1c0 107 -74 151 -74 151h430l118 -2
c-18 -1 -59 -13 -59 -87v-241h28z" />
    <glyph glyph-name="eight" unicode="8" horiz-adv-x="483" 
d="M379 359c44 -31 62 -74 62 -120c0 -54 -24 -111 -63 -150c-4 -6 -70 -92 -179 -92c-113 0 -199 61 -199 164c0 93 54 143 119 184c-67 33 -109 71 -109 125c0 82 44 126 77 149c33 28 101 81 191 81c83 0 129 -52 129 -113c0 -69 -58 -122 -145 -176
c43 -15 84 -30 117 -52zM103 507c32 -44 84 -67 137 -87c51 38 70 77 70 122c0 63 -45 111 -114 111c-42 0 -112 -26 -112 -94c0 -16 5 -34 19 -52zM395 157c0 5 1 10 1 16c0 33 -14 72 -142 118c-38 13 -73 27 -105 40c-35 -32 -60 -71 -60 -120c0 -85 101 -145 191 -145
c61 0 111 34 115 91z" />
    <glyph glyph-name="nine" unicode="9" horiz-adv-x="541" 
d="M273 700c110 0 231 -86 231 -322c0 -273 -242 -377 -242 -377c67 30 141 212 139 350c-1 133 -69 248 -176 272c-66 15 -107 -4 -129 -21c-20 -36 -29 -94 -26 -138c7 -82 71 -139 137 -151c104 -20 151 56 161 73c-13 -27 -61 -150 -206 -150c-68 0 -167 55 -161 200
c5 108 81 168 108 186c34 36 91 78 164 78z" />
    <glyph glyph-name="exclam" unicode="!" horiz-adv-x="167" 
d="M82 146l-43 -15c0 335 -29 523 -29 523l127 43c-41 -122 -55 -551 -55 -551zM10 -4v73l88 16v-72z" />
    <glyph glyph-name="dollar" unicode="$" horiz-adv-x="544" 
d="M439 384c35 -24 50 -66 50 -112c0 -35 -9 -73 -24 -108c0 -17 -56 -111 -163 -149c0 -68 1 -109 1 -109l-58 -16v109c-23 -2 -45 -5 -72 -5c-92 0 -149 46 -149 46s44 31 44 71c0 8 11 -67 144 -67c11 0 22 1 33 2c1 93 1 173 1 243c-126 21 -195 55 -195 152
c0 24 2 45 10 63h-2s52 146 193 186c1 54 4 78 4 78l65 30c-3 -22 -9 -56 -12 -99c103 0 165 -42 165 -46c0 0 -41 -31 -44 -69c0 0 -7 42 -105 62c-6 1 -13 1 -17 3c-3 -68 -6 -148 -6 -231c52 -6 105 -13 137 -34zM126 491c20 -38 70 -54 122 -65c1 96 2 168 2 221
c-35 -4 -69 -17 -96 -40c-7 -6 -38 -37 -38 -77c0 -12 3 -26 10 -39zM437 171c0 33 17 84 -136 110c0 -82 0 -161 1 -223c65 17 127 57 135 113z" />
    <glyph glyph-name="at" unicode="@" horiz-adv-x="741" 
d="M333 700c26 5 51 7 75 7c209 0 303 -150 303 -300c0 -82 -33 -166 -113 -227l-42 -39s-63 87 -124 169c-73 -109 -151 -169 -202 -169c-24 0 -45 17 -45 60c0 102 127 174 187 192c-25 34 -43 59 -48 65c-20 27 -72 94 -109 94h98c45 0 77 -44 90 -62
c43 -59 176 -237 208 -281c14 14 40 54 40 136c0 182 -122 307 -289 307c-63 0 -133 -16 -190 -49c-52 -31 -122 -93 -122 -242c0 -147 96 -316 336 -316c59 0 116 12 151 41c0 0 -64 -90 -240 -90c-134 0 -296 78 -296 311c0 177 132 356 332 393zM364 239
c31 35 45 74 51 95c-14 19 -29 38 -41 55c-86 -43 -114 -123 -114 -162c0 -17 8 -32 29 -32c19 0 45 12 75 44z" />
    <glyph glyph-name="braceleft" unicode="{" horiz-adv-x="218" 
d="M5 349h1h-1zM133 541c0 -198 -64 -183 -127 -192c8 1 43 17 43 172c0 86 -23 178 138 179c-10 -1 -54 -14 -54 -159zM133 156c0 -146 44 -159 54 -159c-161 0 -138 94 -138 180c0 153 -35 169 -43 172c63 -10 127 5 127 -193zM6 349h-1h1z" />
    <glyph glyph-name="braceright" unicode="}" horiz-adv-x="229" 
d="M215 348h-1h1zM87 156c0 198 64 183 127 192c-8 -1 -43 -17 -43 -172c0 -86 23 -178 -138 -179c10 1 54 14 54 159zM87 541c0 146 -44 159 -54 159c161 0 138 -94 138 -180c0 -153 35 -169 43 -172c-63 10 -127 -5 -127 193zM214 348h1h-1z" />
    <glyph glyph-name="bracketleft" unicode="[" horiz-adv-x="258" 
d="M184 657c-19 3 -38 4 -57 4c-12 0 -22 0 -32 -1v-624c36 -5 64 -6 84 -6c42 0 55 6 55 6l-50 -43c-20 4 -47 5 -73 5c-53 0 -104 -5 -104 -5v658l88 50c36 -5 64 -6 84 -6c42 0 55 6 55 6z" />
    <glyph glyph-name="bracketright" unicode="]" horiz-adv-x="258" 
d="M57 37c19 -3 38 -4 57 -4c12 0 22 0 32 1v624c-36 5 -64 6 -84 6c-42 0 -55 -6 -55 -6l50 43c20 -4 47 -5 73 -5c53 0 104 5 104 5v-658l-88 -50c-36 5 -64 6 -84 6c-42 0 -55 -6 -55 -6z" />
    <glyph glyph-name="quotedbl" unicode="&#x22;" horiz-adv-x="297" 
d="M20 654l132 52s-58 -97 -58 -193l-25 -12s-6 153 -49 153zM192 501c0 0 -6 153 -48 153l132 52s-59 -97 -59 -193z" />
    <glyph glyph-name="quotesingle" unicode="'" horiz-adv-x="186" 
d="M20 654l132 52s-58 -97 -58 -193l-25 -12s-6 153 -49 153z" />
    <glyph glyph-name="plus" unicode="+" horiz-adv-x="512" 
d="M277 559c-6 -42 -7 -115 -6 -188c100 1 183 7 183 7l-72 -60c-26 4 -65 6 -111 7c2 -97 6 -184 6 -184l-73 -15c5 66 7 135 7 198c-94 0 -184 -6 -184 -6l66 60c37 -4 77 -6 118 -7c-2 94 -7 160 -7 160z" />
    <glyph glyph-name="semicolon" unicode=";" horiz-adv-x="255" 
d="M73 393v82l99 17v-79zM73 228v81l99 17v-43v-36c0 -25 -11 -61 -49 -78c0 0 14 14 14 38s-15 29 -35 26z" />
    <glyph glyph-name="colon" unicode=":" horiz-adv-x="204" 
d="M48 393v82l99 17v-79zM48 229v82l99 17v-79z" />
    <glyph glyph-name="equal" unicode="=" horiz-adv-x="537" 
d="M106 447c174 -19 403 0 403 0l-79 -67c-99 14 -400 0 -400 0zM106 287c174 -19 403 0 403 0l-79 -67c-99 17 -400 0 -400 0z" />
    <glyph glyph-name="ampersand" unicode="&#x26;" horiz-adv-x="806" 
d="M553 101c58 -21 105 -29 141 -29c77 0 108 33 108 33s-99 -109 -225 -109c-66 0 -139 39 -210 97c-43 -43 -112 -97 -195 -97c-118 0 -176 78 -176 157c0 99 75 160 140 206c-32 51 -51 93 -51 115c0 59 46 109 77 136c2 2 87 90 131 90c67 0 101 -35 101 -92
c0 -90 -85 -148 -168 -207c47 -75 118 -151 186 -209c3 10 4 22 4 34c0 121 -117 131 -112 129c22 10 29 15 154 15s168 31 173 54c0 0 -11 -114 -101 -114h-83c7 -14 11 -29 11 -45c0 -39 -14 -69 -27 -88c45 -37 89 -64 122 -76zM171 603c-5 -12 -8 -26 -8 -41
c0 -43 21 -95 54 -147c59 48 82 92 82 146c0 53 -22 83 -54 83c-45 0 -74 -41 -74 -41zM104 286c-10 -21 -15 -42 -15 -64c0 -82 69 -162 155 -162c35 0 72 13 110 45c-81 69 -156 159 -206 236c-19 -18 -34 -36 -44 -55z" />
    <glyph glyph-name="percent" unicode="%" horiz-adv-x="677" 
d="M202 381c-18 -17 -46 -35 -82 -35c-58 0 -121 43 -121 164c0 98 62 142 85 155c19 18 46 36 82 36c58 0 122 -43 121 -164c0 -97 -62 -142 -85 -156zM53 524c5 -68 36 -127 92 -139c30 -7 50 0 62 7c21 32 30 92 26 131c-5 68 -36 127 -91 139c-31 7 -51 1 -63 -7
c-21 -31 -30 -91 -26 -131zM534 351c58 0 121 -43 121 -164c0 -98 -61 -142 -85 -155c-19 -18 -47 -37 -82 -37c-57 0 -121 44 -121 164c0 98 62 143 86 156c17 18 46 36 81 36zM575 41c21 32 30 92 27 132c-7 68 -37 126 -93 139c-30 6 -50 0 -62 -8
c-21 -31 -29 -91 -26 -130c6 -68 36 -127 92 -140c30 -6 50 0 62 7zM435 651l104 48l-327 -662l-104 -42z" />
    <glyph glyph-name="parenleft" unicode="(" horiz-adv-x="186" 
d="M24 349c0 229 123 353 123 353s-36 -172 -36 -353s36 -352 36 -352s-123 104 -123 352z" />
    <glyph glyph-name="parenright" unicode=")" horiz-adv-x="172" 
d="M151 350c0 -229 -123 -353 -123 -353s36 172 36 353s-36 352 -36 352s123 -104 123 -352z" />
    <glyph glyph-name="numbersign" unicode="#" horiz-adv-x="702" 
d="M652 431c-14 2 -49 3 -96 4l-69 -167c75 2 131 3 131 3l-50 -50c-15 3 -51 5 -99 5l-77 -187l-103 -43l96 231c-54 0 -113 -1 -169 -1l-77 -187l-103 -43l95 228c-77 -2 -134 -3 -134 -3l47 50c22 -3 59 -4 105 -5l70 167c-80 -1 -138 -2 -138 -2l47 49
c23 -2 61 -3 108 -4l76 181l103 49l-97 -231c56 0 116 1 172 2l75 180l102 49l-94 -228c74 1 129 2 129 2zM233 265c55 0 114 1 170 2l69 168c-53 0 -113 0 -170 -1z" />
    <glyph glyph-name="asciicircum" unicode="^" horiz-adv-x="465" 
d="M374 558c26 -17 47 -22 63 -22c18 0 29 6 29 6c0 3 -43 -49 -112 -49c-49 0 -107 70 -143 121c-122 -141 -210 -136 -213 -136c116 77 180 189 180 189l95 26s47 -97 101 -135z" />
    <glyph glyph-name="asterisk" unicode="*" horiz-adv-x="294" 
d="M184 707c0 0 -40 -68 -40 -133l-17 -9s-5 106 -35 106zM116 538c0 0 -102 28 -111 0l-7 98s53 -59 115 -79zM106 527l20 -4s-59 -88 -34 -105l-96 24s72 32 110 85zM148 538l3 19c62 20 115 79 115 79l-7 -98c-9 28 -111 0 -111 0zM158 527c38 -53 110 -85 110 -85
l-96 -24c25 17 -34 105 -34 105z" />
    <glyph glyph-name="asciitilde" unicode="~" horiz-adv-x="512" 
d="M175 391c140 0 221 -131 317 -30c0 0 -53 -99 -165 -98c-122 2 -250 132 -321 26c0 0 29 102 169 102z" />
    <glyph glyph-name="underscore" unicode="_" horiz-adv-x="576" 
d="M82 -29c160 -17 481 0 481 0l-73 -61c-91 14 -476 0 -476 0z" />
    <glyph glyph-name="hyphen" unicode="-" horiz-adv-x="476" 
d="M86 353c53 -6 112 -8 166 -8c109 0 201 8 201 8l-73 -61c-30 5 -81 6 -134 6c-108 0 -228 -6 -228 -6z" />
    <glyph glyph-name="less" unicode="&#x3c;" horiz-adv-x="254" 
d="M221 509c0 0 6 -82 -126 -198c49 -34 117 -90 113 -137c-6 -60 -46 -99 -46 -99s20 35 -15 85s-125 94 -125 94l24 88s104 59 175 167z" />
    <glyph glyph-name="greater" unicode="&#x3e;" horiz-adv-x="254" 
d="M23 75c0 0 -6 82 126 198c-49 34 -117 90 -113 137c6 60 46 99 46 99s-20 -35 15 -85s125 -94 125 -94l-24 -88s-104 -59 -175 -167z" />
    <glyph glyph-name="slash" unicode="/" horiz-adv-x="455" 
d="M40 -5l327 656l104 49l-327 -663z" />
    <glyph glyph-name="comma" unicode="," horiz-adv-x="197" 
d="M50 -1v81l99 17v-43v-36c0 -25 -11 -61 -49 -78c0 0 14 14 14 38s-15 29 -35 26z" />
    <glyph glyph-name="period" unicode="." horiz-adv-x="149" 
d="M3 0v82l99 17v-79z" />
    <glyph glyph-name="backslash" unicode="\" horiz-adv-x="455" 
d="M471 -5l-104 42l-327 663l104 -49z" />
    <glyph glyph-name="question" unicode="?" horiz-adv-x="419" 
d="M319 629c24 -15 76 -58 76 -154c0 -159 -205 -98 -205 -302c0 -6 0 -13 1 -20c0 -20 -37 -29 -37 -48c0 0 -7 32 -7 76c0 60 14 149 81 213c54 52 109 95 109 153c0 78 -78 115 -139 115c-191 0 -128 -115 -159 -115c1 9 2 19 2 27c0 71 -42 127 -42 127h124
c95 0 160 -42 196 -72zM130 -5v74l89 15v-72z" />
    <glyph glyph-name="bar" unicode="|" horiz-adv-x="215" 
d="M67 -72v829l73 26v-829z" />
    </font>
</defs>
</svg>
